<?xml version="1.0"?>
<svg width="487px" height="726px" viewBox="0 0 487 726" version="1.1" xmlns="http://www.w3.org/2000/svg" xmlns:xlink="http://www.w3.org/1999/xlink">
    <title>tia-avatar</title>
    <g id="Page-1" stroke="none" stroke-width="1" fill="none" fill-rule="evenodd">
        <g id="tia-avatar" transform="translate(0.346680, 0.437012)">
            <path d="M404.02832,465.695801 C391.137587,457.716254 360.767036,459.661248 312.916667,471.530783 C265.066298,483.400319 240.37187,497.0494 238.833382,512.478027 L241.141113,517.692519 L365.170281,473.823115 L412.588467,471.530783 L404.02832,465.695801 Z" id="Path-2" fill="#FFFFFF"></path>
            <polygon id="Path" fill="#010000" fill-rule="nonzero" points="207.968262 0 242.842285 0 257.302246 1.27587891 269.210449 2.97705078 283.245117 5.95410156 293.877441 8.93115234 308.762695 14.034668 317.268555 17.8623047 325.774414 22.1152344 334.280273 27.21875 340.659668 31.4716797 348.740234 37.4257812 354.269043 42.1040039 359.372559 46.7822266 363.625488 50.6098633 367.878418 54.862793 370.855469 58.2651367 375.533691 63.3686523 380.211914 69.3227539 384.039551 74.0009766 389.143066 81.230957 395.522461 91.0126953 400.625977 99.5185547 405.729492 108.449707 413.384766 123.334961 418.062988 133.541992 423.591797 146.726074 429.971191 163.3125 438.902344 187.979492 445.281738 204.565918 451.23584 219.876465 455.914062 230.508789 462.293457 246.669922 468.247559 262.405762 472.075195 273.038086 475.477539 286.222168 477.604004 298.555664 478.45459 306.210938 478.45459 323.647949 477.178711 332.579102 475.052246 340.659668 472.500488 347.889648 467.822266 356.820801 462.71875 364.050781 458.040527 369.57959 454.212891 373.407227 449.534668 377.234863 444.856445 380.637207 439.327637 384.039551 429.545898 388.717773 422.315918 390.844238 415.51123 392.120117 411.683594 392.54541 403.603027 392.54541 397.648926 391.694824 390.844238 395.097168 387.016602 396.79834 390.844238 399.350098 391.694824 401.05127 393.821289 425.292969 395.947754 439.327637 399.350098 455.48877 401.901855 462.293457 403.177734 464.419922 404.02832 464.845215 404.02832 465.695801 401.901855 464.845215 398.924805 463.569336 391.269531 462.293457 386.591309 461.868164 370.855469 461.868164 358.09668 463.144043 345.337891 465.270508 332.579102 468.247559 320.245605 471.649902 305.360352 476.753418 295.15332 481.006348 282.819824 486.535156 270.061035 492.914551 259.428711 499.293945 254.325195 502.696289 246.669922 508.225098 241.991699 511.627441 241.141113 512.478027 249.646973 507.374512 257.302246 503.121582 267.083984 498.018066 276.44043 493.339844 288.348633 487.811035 300.256836 482.70752 316.417969 476.753418 329.176758 472.925781 342.36084 469.523438 351.291992 467.822266 365.751953 466.121094 372.981934 465.695801 389.993652 465.695801 398.924805 466.546387 407.430664 468.247559 411.258301 469.523438 413.810059 473.351074 416.787109 478.879883 423.591797 485.259277 426.994141 488.236328 433.798828 495.041016 436.775879 498.443359 441.028809 502.696289 444.005859 506.098633 447.833496 510.351562 456.339355 520.983887 461.017578 527.363281 466.97168 536.294434 472.075195 544.800293 477.178711 554.582031 480.581055 563.087891 483.558105 574.996094 485.259277 585.203125 486.109863 595.835449 486.109863 614.123047 484.408691 631.134766 481.856934 646.445312 478.029297 662.606445 474.626953 674.089355 469.523438 689.399902 463.994629 703.859863 456.764648 721.296875 455.063477 725.549805 27.21875 725.549805 25.5175781 720.020996 23.3911133 710.664551 22.1152344 700.882812 22.1152344 684.296387 23.8164062 674.089355 26.793457 665.583496 30.1958008 658.778809 34.0234375 651.974121 38.2763672 646.02002 42.9545898 640.065918 47.6328125 634.537109 52.3110352 629.433594 55.7133789 626.03125 59.1157227 623.054199 64.6445312 617.525391 69.3227539 613.697754 75.2768555 608.594238 79.9550781 604.766602 84.2080078 600.938965 89.3115234 597.111328 93.5644531 593.708984 95.690918 591.58252 103.346191 569.041992 108.024414 557.984375 112.277344 549.053223 117.380859 540.972656 121.208496 536.294434 124.185547 533.317383 129.714355 529.489746 138.645508 524.38623 148.852539 519.282715 156.933105 515.029785 167.56543 509.500977 176.921875 504.397461 191.807129 496.742188 198.186523 492.914551 196.485352 481.431641 193.508301 466.121094 189.680664 447.408203 189.255371 441.879395 189.680664 441.028809 182.875977 443.580566 173.519531 445.707031 166.714844 446.557617 160.335449 448.684082 153.105469 449.959961 149.277832 450.385254 131.415527 450.385254 122.484375 448.684082 120.35791 447.833496 114.829102 447.833496 107.599121 448.258789 102.070312 449.534668 94.4150391 450.385254 86.7597656 450.385254 80.3803711 449.534668 70.5986328 446.557617 63.7939453 443.155273 59.9663086 440.178223 56.1386719 436.775879 46.7822266 435.5 37.8510742 433.373535 31.0463867 430.821777 23.8164062 426.994141 17.0117188 421.890625 12.3334961 417.212402 6.8046875 409.557129 2.97705078 401.476562 0.425292969 392.970703 0 390.844238 0 378.936035 1.70117188 372.981934 5.10351562 366.177246 7.65527344 362.774902 10.6323242 359.797852 14.4599609 357.246094 17.8623047 356.395508 15.7358398 358.521973 13.184082 361.499023 10.6323242 367.027832 9.35644531 372.131348 9.35644531 378.085449 11.0576172 384.464844 13.609375 389.143066 17.0117188 392.54541 22.1152344 395.097168 25.0922852 395.947754 30.6210938 395.947754 35.7246094 394.246582 39.9775391 391.694824 42.9545898 388.717773 47.2075195 382.338379 51.0351562 373.83252 53.5869141 366.177246 56.1386719 355.119629 58.2651367 340.234375 59.5410156 326.199707 59.9663086 318.969727 59.9663086 278.141602 58.6904297 259.003418 57.4145508 245.819336 52.3110352 243.692871 44.2304688 239.439941 37.4257812 234.336426 33.1728516 230.508789 29.3452148 226.681152 26.3681641 222.428223 22.5405273 215.623535 25.9428711 222.428223 28.9199219 227.531738 33.1728516 232.209961 35.2993164 234.761719 41.253418 239.439941 47.2075195 242.842285 51.8857422 244.96875 51.0351562 245.819336 41.253418 241.141113 35.7246094 237.313477 30.6210938 232.635254 25.9428711 226.681152 21.2646484 218.600586 17.8623047 210.094727 15.7358398 202.439453 14.034668 193.083008 13.184082 185.002441 13.184082 176.496582 14.034668 165.864258 15.7358398 154.806641 19.5634766 139.496094 23.3911133 128.86377 27.21875 120.35791 33.5981445 108.024414 39.9775391 97.8173828 44.2304688 91.8632812 51.0351562 82.9321289 54.4375 78.6791992 59.1157227 73.1503906 65.4951172 66.3457031 68.472168 62.9433594 71.4492188 59.9663086 74.8515625 56.9892578 79.5297852 52.7363281 84.2080078 48.9086914 89.7368164 44.6557617 97.3920898 39.1269531 106.323242 33.1728516 116.955566 26.793457 127.162598 21.2646484 137.369629 16.5864258 151.82959 11.0576172 159.484863 8.50585938 172.243652 5.10351562 185.002441 2.55175781 198.186523 0.850585937"></polygon>
            <polygon id="Path" fill="#FEFDFC" fill-rule="nonzero" points="130.990234 131.415527 131.84082 132.266113 135.243164 141.197266 139.496094 149.703125 144.599609 157.783691 150.553711 165.013672 154.381348 169.266602 157.783691 172.668945 163.3125 176.921875 169.691895 181.174805 172.668945 182.875977 179.04834 182.875977 177.772461 184.151855 164.163086 191.381836 153.956055 198.186523 149.277832 202.439453 146.300781 206.692383 144.174316 213.922363 145.024902 213.071777 145.450195 210.945312 146.300781 212.221191 146.300781 213.071777 147.57666 211.795898 148.001953 210.52002 148.427246 211.795898 151.82959 209.669434 152.680176 208.393555 152.680176 209.244141 157.358398 206.692383 166.289551 200.738281 176.496582 194.358887 183.30127 190.53125 195.634766 184.151855 204.565918 181.600098 213.49707 179.898926 220.727051 179.04834 232.635254 178.623047 244.543457 179.473633 250.072266 179.898926 241.141113 178.197754 228.807617 176.496582 216.474121 176.071289 207.117676 176.071289 199.462402 176.921875 192.232422 178.623047 189.255371 179.04834 184.151855 175.220703 183.30127 173.944824 185.427734 174.370117 189.680664 176.921875 193.508301 176.496582 205.841797 173.094238 213.071777 171.818359 223.278809 170.967773 218.600586 167.140137 214.347656 163.3125 211.370605 159.910156 206.26709 153.530762 201.588867 146.300781 198.611816 141.197266 199.037109 140.34668 203.715332 146.300781 207.542969 150.553711 215.623535 158.634277 220.301758 162.461914 225.405273 166.714844 232.635254 171.818359 235.612305 171.818359 239.865234 172.668945 250.922852 174.79541 254.750488 176.071289 259.428711 176.921875 260.70459 179.04834 261.129883 182.450684 262.831055 186.703613 266.658691 202.01416 270.486328 222.853516 272.612793 239.014648 273.888672 256.45166 273.888672 278.566895 272.612793 296.003906 270.911621 309.187988 268.785156 320.245605 266.233398 329.602051 261.980469 340.234375 259.003418 344.912598 255.175781 349.165527 252.19873 350.866699 250.072266 351.717285 246.669922 351.717285 242.416992 350.016113 239.865234 347.889648 236.888184 343.211426 235.612305 338.533203 235.612305 330.87793 237.313477 325.349121 240.290527 320.245605 244.118164 317.268555 239.439941 318.119141 235.187012 320.245605 230.934082 324.073242 227.957031 327.475586 224.97998 332.579102 222.853516 338.958496 222.00293 344.487305 222.00293 348.740234 223.278809 355.970215 225.405273 362.349609 229.23291 368.303711 233.911133 373.83252 236.462891 375.958984 236.037598 377.234863 229.23291 380.637207 218.600586 385.740723 203.290039 392.120117 193.083008 395.522461 183.30127 397.648926 178.623047 397.648926 173.094238 395.947754 168.841309 393.395996 165.438965 389.568359 162.036621 384.890137 157.358398 378.936035 152.680176 373.83252 149.703125 370.430176 140.771973 361.499023 137.794922 358.09668 130.990234 351.291992 127.162598 346.61377 122.909668 341.084961 117.380859 333.429688 111.852051 324.073242 107.599121 314.716797 104.62207 305.360352 102.920898 297.279785 101.219727 283.245117 100.794434 279.41748 102.495605 278.141602 104.62207 278.566895 103.771484 282.819824 104.62207 282.819824 105.472656 280.268066 106.323242 279.41748 108.449707 279.41748 108.875 279.842773 109.300293 282.819824 110.150879 279.41748 113.12793 278.141602 113.553223 279.41748 114.403809 279.842773 115.254395 276.865723 116.530273 276.44043 117.806152 277.291016 118.656738 275.589844 120.783203 273.888672 121.633789 273.888672 120.783203 276.44043 118.231445 281.118652 113.553223 287.072754 111.852051 289.199219 111.426758 292.17627 112.702637 296.003906 115.679688 299.831543 117.380859 301.958008 123.334961 306.63623 131.415527 310.463867 136.09375 314.716797 134.392578 311.314453 130.990234 308.762695 123.760254 304.935059 119.932617 301.958008 115.254395 297.279785 112.702637 292.17627 113.12793 289.624512 116.10498 286.222168 119.932617 281.118652 122.484375 276.865723 125.036133 269.210449 125.886719 261.555176 125.036133 255.601074 122.909668 250.497559 120.35791 245.819336 115.679688 240.290527 110.576172 236.037598 102.495605 230.508789 96.5415039 226.681152 91.0126953 224.97998 83.7827148 224.554688 78.2539062 225.405273 74.4262695 227.106445 72.7250977 228.382324 71.8745117 228.382324 72.7250977 226.681152 76.5527344 224.554688 74.4262695 222.428223 70.1733398 217.324707 65.9204102 209.244141 62.5180664 199.887695 61.2421875 195.209473 62.0927734 195.209473 65.4951172 202.439453 70.1733398 209.244141 74.0009766 213.922363 77.4033203 217.324707 81.65625 220.727051 82.9321289 221.152344 81.65625 219.025879 80.8056641 217.75 82.5068359 218.600586 85.0585938 219.451172 91.8632812 215.623535 96.1162109 213.922363 96.9667969 213.922363 97.3920898 212.646484 99.5185547 212.646484 93.9897461 207.117676 88.4609375 199.462402 83.7827148 190.53125 80.8056641 181.600098 79.1044922 172.668945 78.6791992 168.841309 78.6791992 153.956055 79.5297852 155.231934 82.9321289 166.714844 87.1850586 176.921875 91.0126953 184.151855 94.4150391 189.255371 97.8173828 193.508301 102.920898 199.037109 107.173828 202.439453 112.702637 205.841797 113.978516 205.841797 108.449707 201.163574 107.599121 199.462402 111.001465 202.01416 116.955566 204.991211 129.714355 200.312988 131.84082 199.462402 127.587891 195.634766 123.760254 190.956543 119.082031 183.30127 117.380859 179.898926 117.806152 179.04834 121.208496 183.726562 125.461426 188.830078 132.691406 194.358887 136.944336 196.910645 138.645508 197.335938 137.794922 194.78418 139.496094 195.634766 142.473145 195.209473 152.254883 191.381836 157.358398 189.680664 159.910156 189.680664 159.910156 188.830078 158.208984 187.979492 153.530762 184.151855 150.128418 180.749512 144.599609 173.519531 140.771973 166.714844 137.794922 160.335449 134.817871 151.82959 132.691406 143.749023 130.990234 134.817871"></polygon>
            <polygon id="Path" fill="#FEFDFC" fill-rule="nonzero" points="217.324707 429.120605 218.600586 429.545898 214.772949 432.097656 206.692383 436.350586 201.588867 438.902344 196.485352 441.028809 195.634766 441.028809 196.485352 449.109375 197.76123 457.189941 201.163574 472.925781 204.140625 489.9375 205.841797 504.822754 205.416504 506.949219 197.335938 512.052734 190.105957 515.880371 189.255371 515.880371 187.554199 523.960938 185.853027 531.616211 181.174805 536.294434 178.197754 539.696777 171.818359 546.501465 168.841309 549.903809 163.3125 555.432617 160.335449 558.834961 142.047852 577.122559 139.070801 580.524902 130.564941 589.030762 127.587891 592.433105 122.484375 597.961914 118.656738 602.214844 111.852051 609.444824 107.173828 614.54834 100.369141 621.77832 97.3920898 625.180664 94.4150391 628.157715 90.5874023 632.835938 86.7597656 637.088867 83.3574219 641.341797 77.4033203 648.99707 72.2998047 656.227051 67.621582 663.457031 61.2421875 675.790527 57.8398438 687.273438 56.1386719 696.20459 55.7133789 699.181641 55.7133789 716.193359 56.5639648 723.42334 56.5639648 725.549805 36.1499023 725.549805 32.3222656 715.342773 29.7705078 704.710449 28.4946289 697.480469 28.4946289 684.72168 30.1958008 673.664062 32.7475586 666.008789 37.4257812 657.077637 43.3798828 648.146484 48.0581055 642.192383 52.3110352 637.51416 55.2880859 634.111816 65.0698242 624.330078 68.472168 621.353027 73.1503906 617.100098 77.8286133 613.272461 83.3574219 608.594238 88.0356445 604.766602 94.840332 599.237793 102.495605 593.283691 109.725586 587.32959 116.530273 581.800781 122.484375 577.122559 127.587891 572.869629 132.266113 569.041992 137.794922 564.36377 142.047852 560.961426 146.726074 557.133789 152.254883 552.455566 158.208984 547.777344 162.887207 543.949707 173.519531 535.443848 181.174805 529.915039 184.577148 515.029785 186.27832 513.328613 194.358887 509.075684 200.738281 505.248047 200.738281 498.868652 199.462402 487.385742 196.910645 472.075195 194.78418 461.017578 192.232422 450.810547 190.956543 444.005859 190.956543 440.178223 192.657715 438.477051 203.715332 434.224121"></polygon>
            <polygon id="Path" fill="#FEFDFC" fill-rule="nonzero" points="202.864746 2.55175781 217.324707 2.55175781 217.324707 2.97705078 204.140625 4.25292969 189.255371 6.37939453 179.473633 8.50585938 165.864258 12.3334961 156.507812 15.7358398 143.749023 21.2646484 129.714355 28.4946289 121.208496 33.5981445 111.852051 39.5522461 107.599121 42.5292969 99.9438477 47.6328125 94.4150391 51.8857422 86.7597656 57.4145508 82.081543 61.2421875 77.8286133 65.0698242 67.621582 75.2768555 64.2192383 79.5297852 58.6904297 86.7597656 54.012207 93.9897461 50.6098633 99.0932617 52.7363281 96.9667969 56.5639648 91.8632812 59.9663086 87.6103516 67.1962891 80.3803711 71.8745117 76.5527344 77.4033203 71.4492188 78.6791992 70.1733398 79.5297852 70.5986328 74.8515625 75.7021484 69.7480469 82.081543 64.6445312 90.1621094 61.2421875 96.9667969 58.6904297 101.64502 59.9663086 101.219727 60.3916016 101.64502 60.3916016 104.196777 61.6674805 104.196777 61.2421875 106.323242 58.6904297 112.277344 56.1386719 119.932617 52.7363281 128.013184 50.6098633 131.415527 48.4833984 137.794922 47.6328125 138.220215 48.0581055 134.817871 48.4833984 133.116699 47.6328125 133.116699 46.7822266 135.243164 43.3798828 143.32373 40.828125 151.82959 39.5522461 159.484863 39.1269531 167.990723 38.2763672 167.140137 37.8510742 164.163086 37.8510742 153.530762 38.7016602 142.898438 40.402832 134.392578 42.5292969 127.587891 42.5292969 126.312012 38.7016602 132.266113 36.5751953 135.668457 33.5981445 139.921387 30.1958008 146.726074 28.0693359 152.254883 25.9428711 160.335449 24.2416992 169.266602 23.3911133 169.691895 23.8164062 163.3125 25.5175781 151.404297 28.0693359 141.197266 24.2416992 150.128418 21.2646484 159.910156 19.5634766 168.416016 18.7128906 174.79541 18.2875977 180.749512 18.2875977 185.002441 19.1381836 193.933594 21.2646484 204.565918 23.8164062 211.795898 26.793457 218.175293 26.3681641 219.025879 22.9658203 213.071777 19.5634766 204.991211 17.4370117 197.335938 15.7358398 186.703613 15.3105469 183.30127 15.3105469 171.818359 17.0117188 158.208984 19.1381836 148.001953 23.3911133 134.392578 27.644043 124.61084 31.4716797 116.530273 37.0004883 106.748535 41.253418 99.9438477 46.3569336 92.7138672 50.1845703 87.6103516 54.862793 81.65625 59.5410156 76.1274414 64.2192383 71.4492188 67.1962891 68.046875 76.1274414 59.1157227 79.5297852 56.1386719 83.7827148 52.3110352 89.7368164 47.6328125 95.265625 43.3798828 108.024414 34.8740234 116.530273 29.7705078 127.587891 23.8164062 135.668457 19.5634766 148.852539 14.034668 162.036621 9.78173828 175.220703 6.37939453 190.105957 3.82763672"></polygon>
            <polygon id="Path" fill="#010000" fill-rule="nonzero" points="212.221191 198.186523 213.071777 198.611816 213.071777 200.312988 225.830566 201.588867 226.681152 199.462402 227.957031 198.611816 227.531738 201.163574 227.106445 202.439453 231.359375 203.290039 230.083496 204.140625 226.255859 203.715332 224.554688 206.692383 230.083496 206.692383 235.187012 204.140625 239.014648 201.163574 240.290527 201.163574 238.589355 204.565918 241.566406 206.26709 241.141113 207.117676 239.014648 206.26709 236.888184 206.692383 235.187012 208.818848 243.692871 208.818848 247.095215 207.117676 249.646973 204.991211 250.497559 204.991211 249.646973 207.117676 245.394043 210.945312 251.773438 210.945312 256.026367 209.669434 257.727539 209.244141 256.026367 211.370605 249.22168 216.048828 247.095215 217.75 246.669922 219.025879 250.497559 219.025879 251.348145 219.451172 251.348145 220.301758 247.520508 220.727051 244.543457 223.278809 243.692871 223.278809 242.842285 225.405273 245.819336 225.405273 247.095215 225.830566 247.520508 227.106445 242.416992 227.106445 240.71582 228.382324 238.589355 228.807617 237.313477 230.508789 239.014648 229.658203 241.141113 229.658203 241.566406 230.934082 238.164062 232.209961 237.313477 233.48584 239.014648 233.911133 240.290527 235.612305 236.037598 235.187012 232.209961 236.037598 231.359375 237.313477 233.060547 238.589355 232.635254 239.865234 229.658203 239.439941 225.405273 240.71582 227.106445 243.267578 227.106445 244.118164 224.97998 243.267578 223.278809 242.416992 220.301758 242.842285 217.75 244.118164 217.75 246.669922 216.048828 245.394043 216.048828 244.543457 212.221191 245.819336 210.945312 249.646973 209.669434 249.646973 209.669434 246.244629 204.565918 247.095215 204.140625 248.796387 203.290039 248.371094 203.290039 247.520508 201.163574 248.371094 199.462402 250.922852 198.186523 250.922852 199.462402 247.095215 193.083008 247.945801 190.956543 250.497559 190.105957 250.497559 190.956543 248.371094 191.807129 247.095215 187.128906 247.095215 185.427734 247.945801 184.151855 247.945801 184.151855 247.095215 187.979492 244.96875 189.680664 245.394043 195.634766 245.394043 206.26709 243.692871 216.899414 241.141113 217.324707 240.71582 213.071777 239.865234 207.117676 236.888184 203.715332 233.48584 202.864746 231.359375 206.692383 227.957031 207.117676 226.681152 202.864746 228.807617 201.163574 228.382324 199.887695 225.405273 199.462402 224.129395 199.462402 218.600586 199.887695 216.899414 193.508301 219.025879 187.554199 222.00293 183.30127 225.830566 180.749512 229.658203 179.04834 233.48584 177.772461 234.336426 178.623047 232.209961 177.772461 233.060547 176.921875 236.037598 176.071289 236.037598 176.071289 230.508789 172.668945 233.48584 168.841309 235.612305 169.266602 233.911133 172.243652 230.934082 175.220703 225.830566 176.071289 224.554688 175.645996 224.97998 173.094238 227.106445 170.54248 227.957031 167.990723 227.957031 169.266602 227.106445 172.668945 225.405273 174.79541 222.853516 171.818359 222.428223 167.56543 222.428223 167.140137 224.554688 165.864258 224.129395 166.714844 221.577637 164.163086 220.727051 164.163086 219.876465 167.140137 219.876465 170.54248 215.623535 174.370117 211.795898 172.668945 209.669434 172.668945 208.818848 174.370117 209.669434 175.220703 210.52002 177.347168 210.094727 182.025391 207.117676 188.830078 204.140625 196.060059 202.01416 204.991211 200.738281 211.795898 200.738281"></polygon>
            <polygon id="Path" fill="#FEFDFC" fill-rule="nonzero" points="250.497559 384.890137 254.750488 385.740723 262.405762 387.441895 265.382812 387.867188 275.589844 387.867188 281.543945 387.441895 286.222168 388.717773 297.705078 389.568359 302.808594 390.844238 310.88916 391.694824 316.417969 391.694824 328.751465 390.418945 334.280273 389.143066 337.257324 389.568359 341.510254 392.120117 339.809082 392.970703 326.625 395.947754 311.739746 400.200684 295.578613 405.304199 274.739258 412.108887 255.175781 419.338867 239.865234 424.867676 239.014648 424.442383 237.313477 408.28125 236.462891 403.177734 236.462891 399.775391 244.118164 392.120117 247.095215 388.717773"></polygon>
            <polygon id="Path" fill="#FEFDFB" fill-rule="nonzero" points="358.947266 51.4604492 361.07373 52.3110352 364.050781 55.2880859 367.453125 58.2651367 375.108398 65.9204102 384.464844 77.8286133 388.717773 84.6333008 391.694824 88.8862305 392.970703 91.0126953 392.54541 91.8632812 387.441895 85.0585938 385.31543 83.3574219 389.143066 88.0356445 393.395996 94.840332 399.350098 105.047363 404.878906 114.403809 409.131836 121.633789 414.660645 132.691406 421.465332 148.427246 426.994141 163.3125 434.224121 184.151855 441.879395 203.290039 449.959961 222.428223 455.48877 235.612305 461.868164 252.19873 467.396973 267.083984 470.799316 278.566895 473.776367 290.900391 475.477539 301.958008 475.902832 306.63623 475.902832 324.498535 474.20166 334.705566 471.649902 343.211426 467.396973 352.142578 463.994629 357.246094 460.592285 361.499023 455.914062 366.602539 450.385254 371.280762 447.833496 372.981934 446.98291 372.556641 448.684082 371.706055 449.534668 370.004883 453.787598 365.751953 459.316406 358.09668 463.144043 351.717285 466.546387 344.912598 469.94873 334.705566 471.649902 326.199707 472.500488 319.39502 472.500488 304.084473 471.224609 294.302734 469.098145 283.245117 465.695801 270.911621 460.592285 255.601074 454.638184 240.290527 449.534668 227.531738 443.580566 211.795898 435.5 190.53125 431.24707 179.04834 427.844727 170.117188 422.741211 157.358398 417.637695 145.450195 413.810059 136.944336 408.706543 126.312012 404.02832 117.806152 398.074219 108.449707 392.120117 100.369141 387.441895 94.840332 383.188965 90.5874023 377.234863 87.1850586 374.683105 86.3344727 372.556641 85.9091797 370.855469 85.0585938 377.660156 99.0932617 380.211914 104.196777 379.786621 105.047363 371.280762 93.1391602 367.453125 88.8862305 365.32666 86.3344727 365.32666 85.4838867 364.476074 85.4838867 364.476074 86.3344727 362.774902 86.7597656 361.499023 86.3344727 365.32666 93.1391602 368.729004 99.9438477 373.407227 110.150879 373.83252 112.277344 372.556641 111.001465 367.878418 102.920898 361.499023 92.7138672 358.09668 88.0356445 353.84375 82.081543 345.763184 70.1733398 341.084961 64.2192383 335.130859 57.8398438 334.705566 56.9892578 336.406738 57.8398438 340.234375 60.8168945 344.487305 64.6445312 347.889648 67.621582 352.993164 72.2998047 354.694336 71.4492188 353.84375 69.3227539 350.441406 63.7939453 345.763184 58.6904297 344.912598 56.9892578 346.61377 57.8398438 350.866699 61.6674805 355.544922 65.0698242 358.947266 66.7709961 362.349609 66.7709961 364.050781 67.1962891 363.625488 65.4951172 363.625488 62.0927734 364.050781 59.5410156 365.751953 59.9663086 366.602539 60.3916016 363.625488 56.9892578 358.947266 51.8857422"></polygon>
            <polygon id="Path" fill="#FEFDFC" fill-rule="nonzero" points="313.440918 605.191895 314.291504 605.617188 310.038574 613.272461 304.935059 621.353027 298.980957 632.835938 293.026855 643.893555 287.92334 653.25 280.268066 668.135254 275.164551 677.491699 270.061035 687.69873 265.382812 697.480469 261.980469 704.710449 261.555176 706.836914 266.233398 704.285156 278.141602 692.376953 281.543945 689.399902 285.371582 685.997559 288.348633 682.595215 323.222656 647.721191 326.625 644.744141 333.429688 637.939453 336.406738 634.537109 337.257324 634.111816 336.406738 636.238281 331.303223 642.192383 325.349121 649.422363 320.245605 655.376465 314.291504 662.606445 310.463867 667.284668 305.360352 673.23877 301.532715 677.916992 296.429199 683.445801 293.452148 686.848145 288.348633 692.376953 283.245117 698.331055 275.164551 706.411621 270.486328 710.239258 265.382812 715.342773 261.980469 718.319824 257.302246 722.572754 254.750488 725.549805 243.692871 725.549805 244.118164 723.42334 252.19873 707.6875 256.45166 695.779297 261.980469 683.871094 266.658691 675.365234 272.612793 665.158203 277.291016 657.50293 282.819824 648.99707 286.222168 643.893555 295.578613 630.28418 300.682129 623.479492 306.63623 614.973633 310.88916 609.019531"></polygon>
            <polygon id="Path" fill="#FEFDFC" fill-rule="nonzero" points="349.59082 395.522461 353.84375 395.947754 362.774902 397.648926 372.981934 398.924805 374.257812 399.775391 363.625488 399.775391 352.993164 400.625977 342.786133 402.327148 331.303223 404.878906 313.440918 409.982422 297.705078 415.085938 264.95752 426.568848 244.543457 434.224121 231.784668 438.902344 214.772949 445.707031 213.922363 446.557617 213.922363 451.661133 219.025879 478.879883 222.853516 500.569824 223.704102 506.949219 221.577637 509.500977 211.795898 512.478027 210.945312 512.052734 216.474121 506.523926 215.198242 496.742188 211.370605 475.052246 207.117676 455.914062 204.991211 447.833496 204.565918 443.580566 206.26709 441.454102 214.772949 438.477051 223.704102 435.074707 238.589355 429.545898 249.646973 425.292969 275.589844 416.361816 294.728027 409.557129 315.14209 403.177734 327.900879 399.775391 339.383789 397.223633"></polygon>
            <polygon id="Path" fill="#FED01F" fill-rule="nonzero" points="304.935059 414.235352 306.210938 414.660645 293.026855 421.040039 275.164551 429.971191 267.083984 434.224121 257.302246 438.902344 249.22168 443.155273 230.508789 452.511719 230.934082 459.741699 234.336426 480.155762 237.313477 501.845703 237.313477 503.972168 229.658203 506.949219 224.97998 508.650391 224.129395 508.650391 224.554688 506.949219 224.554688 503.546875 221.577637 485.68457 214.772949 449.959961 214.772949 447.408203 218.175293 445.707031 236.037598 438.902344 257.302246 430.821777 280.268066 422.741211 295.578613 417.637695"></polygon>
            <polygon id="Path" fill="#FEFDFC" fill-rule="nonzero" points="295.578613 72.2998047 297.279785 73.1503906 302.808594 78.2539062 307.061523 81.65625 310.463867 85.0585938 312.165039 87.1850586 313.015625 87.6103516 311.739746 84.6333008 307.061523 77.8286133 308.337402 77.8286133 312.590332 82.5068359 312.590332 83.3574219 314.291504 84.2080078 317.693848 84.6333008 321.946777 91.0126953 324.073242 94.840332 323.647949 96.1162109 322.797363 96.5415039 321.946777 97.8173828 319.820312 96.5415039 323.222656 103.346191 328.751465 113.978516 330.027344 116.10498 330.027344 116.955566 328.326172 116.10498 324.498535 111.852051 320.670898 107.173828 319.39502 106.323242 319.820312 108.875 318.119141 108.024414 311.314453 102.070312 311.314453 104.62207 309.613281 105.472656 303.65918 106.748535 302.383301 107.599121 300.682129 107.173828 298.555664 105.897949 300.256836 111.001465 301.958008 114.403809 301.532715 115.254395 298.130371 110.576172 293.877441 104.62207 291.750977 102.070312 290.900391 101.64502 290.900391 103.771484 287.072754 103.346191 293.877441 121.208496 294.302734 123.760254 292.601562 121.633789 287.498047 112.277344 283.245117 105.047363 278.141602 96.1162109 275.589844 91.4379883 274.313965 87.6103516 269.635742 79.5297852 265.382812 73.5756836 265.808105 72.7250977 276.865723 83.7827148 280.693359 88.4609375 281.969238 88.4609375 279.842773 84.6333008 280.268066 82.9321289 283.67041 86.7597656 287.072754 89.7368164 290.049805 91.8632812 291.750977 91.4379883 296.003906 90.5874023 298.980957 89.7368164 301.532715 91.0126953 301.107422 87.1850586 302.383301 84.6333008 304.084473 85.0585938 299.831543 78.2539062 295.578613 72.7250977"></polygon>
            <polygon id="Path" fill="#FEFDFC" fill-rule="nonzero" points="475.052246 569.467285 476.328125 571.168457 478.879883 580.099609 480.581055 589.030762 481.431641 599.237793 481.431641 616.674805 480.155762 632.410645 477.604004 648.146484 474.626953 660.905273 470.374023 675.790527 465.270508 690.250488 461.017578 701.308105 457.189941 709.813965 452.086426 721.296875 449.959961 725.549805 441.879395 725.549805 442.72998 722.998047 448.258789 711.515137 452.937012 701.733398 457.615234 690.250488 463.144043 674.939941 468.672852 656.652344 471.649902 643.893555 474.626953 626.881836 476.753418 608.168945 477.178711 593.708984 476.753418 584.352539 475.477539 573.294922"></polygon>
            <polygon id="Path" fill="#010000" fill-rule="nonzero" points="130.139648 581.800781 130.990234 582.226074 127.162598 586.904297 124.185547 590.731934 118.656738 597.111328 115.254395 600.088379 112.277344 603.490723 105.897949 609.870117 102.920898 613.272461 96.9667969 619.226562 93.9897461 622.628906 90.1621094 626.456543 87.1850586 629.858887 82.5068359 635.387695 78.6791992 640.065918 74.0009766 646.02002 69.3227539 652.399414 63.7939453 660.905273 58.6904297 670.687012 54.862793 679.618164 52.7363281 688.549316 51.8857422 694.078125 51.4604492 699.181641 51.4604492 715.342773 52.3110352 722.572754 52.3110352 725.549805 50.1845703 725.549805 48.4833984 715.342773 46.7822266 711.089844 43.3798828 709.813965 37.8510742 704.710449 34.8740234 700.032227 33.5981445 697.905762 31.8969727 689.399902 31.8969727 681.744629 32.7475586 680.46875 33.5981445 675.365234 34.8740234 674.939941 45.0810547 678.342285 51.4604492 679.618164 54.012207 674.514648 58.6904297 664.73291 63.3686523 656.652344 67.621582 650.698242 73.1503906 643.468262 79.1044922 636.238281 84.2080078 630.28418 88.0356445 626.03125 91.0126953 622.628906 96.1162109 617.525391 99.0932617 614.123047 104.196777 608.168945 108.449707 603.916016 111.852051 600.938965 114.829102 597.961914 119.507324 592.007812 126.737305 584.777832"></polygon>
            <polygon id="Path" fill="#FEFDFC" fill-rule="nonzero" points="346.188477 294.728027 346.61377 294.728027 346.61377 300.682129 345.763184 315.14209 344.062012 329.176758 341.935547 339.809082 339.383789 349.165527 336.406738 357.246094 332.579102 364.476074 328.326172 370.430176 323.647949 375.533691 318.544434 379.786621 312.590332 383.614258 306.210938 386.166016 298.555664 387.867188 291.750977 388.29248 284.095703 387.441895 284.520996 386.591309 291.750977 384.464844 297.279785 381.487793 303.65918 377.234863 307.912109 373.83252 313.866211 368.729004 318.969727 363.625488 323.647949 357.671387 328.326172 350.866699 333.004395 342.786133 336.832031 334.705566 340.659668 324.073242 343.211426 314.291504 344.912598 303.65918"></polygon>
            <polygon id="Path" fill="#FEFDFC" fill-rule="nonzero" points="103.346191 373.407227 103.771484 374.683105 99.9438477 389.568359 96.5415039 398.074219 91.8632812 407.005371 87.6103516 412.53418 83.7827148 416.787109 79.1044922 421.040039 73.1503906 425.292969 65.0698242 429.120605 56.9892578 431.24707 54.4375 431.672363 43.8051758 431.672363 35.7246094 429.545898 29.3452148 426.994141 23.3911133 423.591797 18.2875977 418.913574 14.8852539 415.936523 10.6323242 410.833008 6.8046875 404.878906 7.22998047 404.02832 12.7587891 410.407715 16.5864258 413.810059 21.2646484 416.787109 28.0693359 419.76416 33.5981445 421.465332 38.7016602 422.315918 48.9086914 422.315918 59.5410156 420.189453 67.1962891 417.212402 73.5756836 413.810059 79.5297852 409.557129 84.6333008 404.878906 89.7368164 398.924805 93.9897461 392.54541 98.2426758 385.31543 101.64502 377.234863"></polygon>
            <polygon id="Path" fill="#FEFDFC" fill-rule="nonzero" points="189.680664 65.4951172 191.381836 66.3457031 194.358887 69.3227539 197.76123 72.2998047 202.864746 77.8286133 206.692383 82.5068359 211.370605 88.0356445 220.301758 99.9438477 224.97998 107.599121 230.083496 115.254395 234.336426 122.059082 235.187012 124.185547 233.060547 122.059082 228.382324 116.530273 224.554688 111.852051 218.175293 105.047363 212.221191 98.6679688 210.52002 96.9667969 210.52002 96.1162109 208.393555 95.690918 208.818848 97.3920898 211.795898 103.346191 214.347656 106.323242 213.922363 107.173828 210.52002 103.771484 207.117676 101.64502 203.290039 100.794434 200.312988 99.0932617 198.611816 100.369141 197.76123 102.070312 196.060059 102.495605 196.910645 104.62207 199.462402 108.449707 204.565918 115.254395 205.416504 117.380859 204.140625 116.530273 204.140625 115.679688 203.290039 115.679688 200.312988 112.277344 196.485352 108.024414 193.083008 105.472656 189.680664 103.346191 190.53125 105.897949 195.209473 113.553223 200.312988 121.208496 199.037109 121.208496 195.209473 116.530273 189.680664 109.725586 185.427734 103.771484 182.450684 99.5185547 179.04834 93.9897461 175.220703 89.3115234 170.117188 79.5297852 165.864258 70.1733398 166.289551 69.3227539 169.266602 74.0009766 173.094238 80.3803711 178.623047 87.6103516 183.30127 93.5644531 184.577148 93.9897461 183.30127 91.0126953 182.875977 89.7368164 185.427734 90.5874023 188.404785 89.7368164 192.232422 89.7368164 193.083008 87.1850586 192.657715 84.6333008 186.27832 76.1274414 186.703613 75.2768555 193.933594 82.5068359 195.634766 83.3574219 197.76123 82.5068359 199.887695 82.9321289 202.01416 82.5068359 203.290039 83.3574219 204.565918 83.3574219 201.588867 79.5297852 196.485352 74.0009766 192.657715 69.3227539 189.680664 65.9204102"></polygon>
            <polygon id="Path" fill="#FEFDFB" fill-rule="nonzero" points="395.097168 510.776855 404.02832 510.776855 414.660645 512.052734 425.292969 514.604492 434.224121 517.581543 441.454102 520.983887 449.109375 525.662109 454.638184 530.340332 458.040527 533.317383 463.569336 538.846191 468.247559 544.800293 472.500488 550.329102 476.328125 557.133789 478.45459 565.214355 478.879883 569.467285 478.029297 568.616699 473.351074 558.834961 468.672852 551.179688 464.845215 546.076172 461.017578 541.397949 453.787598 534.167969 448.258789 529.915039 442.304688 526.087402 435.5 522.685059 426.994141 519.282715 416.787109 516.730957 411.258301 515.880371 406.154785 515.455078 394.246582 515.455078 384.039551 516.305664 369.57959 519.282715 356.395508 523.110352 344.062012 527.788574 330.027344 534.593262 321.096191 540.12207 313.440918 545.650879 308.762695 549.478516 303.233887 554.582031 299.40625 558.409668 296.429199 561.812012 292.17627 566.490234 287.92334 572.019043 285.371582 574.996094 284.946289 574.145508 287.92334 569.467285 292.601562 562.662598 297.279785 556.708496 303.233887 550.329102 308.337402 545.650879 314.291504 540.972656 321.096191 536.294434 327.475586 532.466797 334.280273 529.064453 345.763184 523.535645 356.820801 519.282715 369.154297 515.455078 379.786621 512.90332 390.418945 511.202148"></polygon>
            <polygon id="Path" fill="#FEFDFC" fill-rule="nonzero" points="305.360352 58.2651367 307.486816 59.1157227 312.165039 63.3686523 315.567383 66.3457031 320.245605 70.5986328 323.647949 73.5756836 328.751465 79.1044922 329.176758 77.8286133 324.498535 71.8745117 324.923828 71.0239258 328.326172 74.0009766 330.452637 76.1274414 338.10791 77.8286133 339.383789 73.5756836 341.510254 74.4262695 342.786133 74.8515625 341.084961 72.2998047 335.981445 66.7709961 333.85498 63.7939453 335.556152 64.6445312 341.935547 70.5986328 344.912598 73.5756836 348.314941 76.5527344 352.142578 80.8056641 357.246094 88.0356445 357.246094 88.8862305 355.544922 88.4609375 353.418457 86.7597656 353.84375 89.3115234 352.567871 89.7368164 353.418457 91.8632812 356.820801 97.3920898 356.820801 98.2426758 355.119629 97.3920898 352.142578 93.9897461 351.291992 93.5644531 350.866699 95.690918 346.61377 96.1162109 344.062012 97.3920898 342.36084 96.5415039 344.487305 101.219727 343.636719 101.219727 339.809082 96.1162109 339.809082 95.265625 337.682617 94.4150391 334.280273 92.2885742 335.556152 95.265625 339.383789 102.495605 338.10791 102.495605 333.85498 96.9667969 331.728516 96.1162109 330.027344 96.5415039 329.602051 94.840332 327.050293 95.265625 324.073242 91.8632812 319.820312 85.0585938 318.969727 83.7827148 318.969727 79.5297852 321.096191 80.3803711 321.946777 80.8056641 315.992676 71.8745117 311.739746 65.9204102 306.210938 59.5410156"></polygon>
            <polygon id="Path" fill="#FEFDFC" fill-rule="nonzero" points="230.083496 74.4262695 232.635254 76.1274414 232.635254 76.9780273 233.48584 76.9780273 235.612305 79.1044922 241.991699 85.0585938 245.394043 88.0356445 247.095215 90.1621094 247.945801 90.5874023 244.543457 84.6333008 242.416992 81.230957 243.692871 81.230957 248.371094 86.7597656 251.773438 90.1621094 253.899902 91.0126953 255.601074 88.8862305 258.578125 87.6103516 260.279297 87.6103516 257.727539 82.9321289 257.302246 81.230957 259.428711 83.3574219 262.831055 87.1850586 266.233398 89.7368164 268.785156 91.8632812 269.635742 90.1621094 267.93457 87.1850586 268.359863 85.9091797 271.762207 90.1621094 273.888672 92.2885742 277.291016 96.9667969 280.268066 102.495605 280.268066 103.771484 277.716309 103.771484 277.716309 105.047363 276.015137 104.196777 276.015137 103.346191 274.313965 102.920898 277.716309 109.725586 280.268066 113.978516 279.842773 115.254395 274.739258 108.449707 274.313965 109.300293 272.612793 108.875 269.210449 105.047363 265.808105 105.047363 261.129883 103.771484 259.854004 103.771484 256.876953 108.024414 255.175781 107.173828 255.175781 106.323242 253.474609 105.897949 256.45166 113.978516 261.129883 125.461426 262.405762 128.438477 261.980469 129.714355 256.876953 120.35791 250.497559 109.300293 244.118164 99.0932617 238.164062 88.4609375 232.209961 78.2539062 230.083496 75.2768555"></polygon>
            <polygon id="Path" fill="#FEFDFC" fill-rule="nonzero" points="154.806641 75.2768555 156.08252 76.9780273 159.910156 83.3574219 164.588379 89.7368164 167.990723 94.4150391 169.266602 94.4150391 165.864258 88.4609375 166.289551 87.1850586 169.691895 90.5874023 172.243652 93.5644531 173.944824 93.1391602 175.220703 91.8632812 176.921875 92.2885742 180.749512 98.2426758 182.875977 102.495605 182.875977 103.346191 180.324219 102.495605 179.473633 102.070312 179.473633 103.771484 176.921875 104.62207 175.220703 105.047363 173.944824 103.346191 172.668945 102.920898 175.645996 109.725586 177.347168 113.12793 175.645996 112.277344 172.243652 108.024414 169.266602 105.472656 169.266602 104.62207 167.56543 104.196777 167.56543 106.748535 166.289551 107.173828 169.691895 114.829102 167.990723 113.978516 164.163086 109.725586 163.3125 110.150879 162.887207 112.277344 161.186035 111.426758 156.507812 108.875 155.657227 107.599121 154.806641 107.599121 153.105469 110.150879 151.82959 111.426758 149.703125 111.001465 148.427246 110.150879 149.703125 117.806152 149.277832 119.507324 145.024902 111.426758 142.898438 106.748535 141.622559 102.920898 141.622559 100.794434 142.047852 99.5185547 142.473145 97.8173828 144.599609 99.0932617 144.599609 95.265625 142.047852 84.6333008 142.473145 82.9321289 147.57666 93.5644531 149.277832 96.1162109 152.680176 97.8173828 155.231934 97.3920898 157.783691 96.1162109 159.484863 93.5644531 161.186035 93.5644531 154.806641 76.5527344"></polygon>
            <polygon id="Path" fill="#FEFDFC" fill-rule="nonzero" points="79.1044922 85.9091797 79.1044922 87.1850586 74.4262695 95.265625 70.5986328 103.771484 70.1733398 105.047363 76.5527344 101.219727 77.4033203 100.794434 76.9780273 105.047363 77.8286133 105.897949 77.8286133 107.599121 79.9550781 106.323242 81.230957 105.047363 80.8056641 108.024414 78.2539062 118.656738 74.4262695 127.162598 72.2998047 135.668457 71.4492188 136.519043 71.4492188 128.013184 72.7250977 119.932617 73.1503906 119.082031 71.4492188 120.783203 68.8974609 126.737305 64.6445312 139.496094 63.7939453 139.496094 64.2192383 134.392578 65.0698242 129.714355 65.0698242 127.162598 61.6674805 130.139648 57.8398438 133.967285 54.4375 139.921387 52.7363281 145.024902 51.0351562 156.08252 50.6098633 156.08252 50.6098633 142.898438 51.8857422 134.392578 54.012207 126.312012 58.2651367 115.679688 63.3686523 105.897949 69.3227539 98.2426758 76.1274414 89.7368164"></polygon>
            <polygon id="Path" fill="#FEFDFC" fill-rule="nonzero" points="431.24707 296.003906 431.672363 296.003906 431.672363 314.716797 430.396484 325.349121 428.695312 332.579102 426.143555 339.809082 422.741211 346.188477 418.913574 351.291992 415.085938 355.544922 410.833008 359.372559 407.005371 361.499023 407.430664 359.797852 409.131836 357.246094 409.557129 355.544922 408.706543 355.544922 407.855957 357.246094 406.154785 356.395508 404.02832 357.671387 400.200684 358.947266 398.074219 359.797852 393.395996 363.200195 392.54541 362.774902 396.373047 358.09668 398.924805 353.418457 401.901855 347.889648 401.05127 347.889648 400.200684 349.59082 397.648926 353.418457 394.246582 357.671387 390.418945 361.924316 386.591309 364.901367 386.591309 363.625488 391.269531 358.947266 396.373047 351.717285 400.200684 345.337891 404.02832 336.406738 407.430664 325.349121 408.706543 320.670898 409.131836 320.670898 408.706543 325.349121 406.580078 335.130859 403.177734 344.912598 402.327148 347.039062 404.453613 346.188477 406.580078 342.786133 407.430664 343.211426 407.005371 344.912598 412.108887 342.36084 413.384766 341.084961 415.51123 341.510254 419.338867 333.429688 421.890625 324.498535 423.591797 314.716797 424.867676 303.65918 425.292969 303.65918 425.292969 314.291504 424.01709 325.349121 422.315918 333.004395 421.890625 333.85498 423.166504 333.004395 427.419434 322.37207 429.120605 315.992676 430.396484 306.63623 430.821777 297.279785"></polygon>
            <polygon id="Path" fill="#FEFDFC" fill-rule="nonzero" points="364.476074 660.905273 364.476074 662.181152 357.671387 668.98584 354.269043 671.962891 348.740234 677.066406 339.383789 686.422852 335.981445 689.399902 332.153809 693.227539 328.751465 696.20459 321.946777 702.583984 318.544434 705.986328 315.14209 708.963379 308.762695 714.91748 305.360352 717.894531 297.705078 725.549805 276.015137 725.549805 277.291016 724.273926 286.222168 718.745117 296.429199 712.365723 304.084473 707.262207 311.739746 701.733398 319.820312 696.20459 327.900879 690.250488 334.280273 685.146973 341.510254 679.618164 349.165527 673.664062 353.84375 669.836426 358.09668 666.008789 362.774902 662.181152"></polygon>
            <polygon id="Path" fill="#FEFDFB" fill-rule="nonzero" points="335.130859 193.933594 335.981445 195.209473 339.809082 207.542969 346.61377 234.761719 350.016113 250.922852 352.142578 266.658691 352.993164 278.141602 352.993164 302.383301 351.717285 315.992676 349.59082 328.751465 346.61377 339.809082 344.062012 347.464355 340.234375 355.970215 335.556152 364.050781 330.452637 370.855469 328.751465 372.131348 329.602051 370.430176 333.85498 364.476074 337.257324 357.671387 339.809082 351.291992 343.211426 339.809082 345.763184 326.199707 347.464355 311.739746 347.889648 306.210938 348.314941 295.15332 348.314941 284.520996 347.889648 272.612793 346.188477 255.175781 343.211426 233.48584 340.234375 217.324707 335.556152 197.335938"></polygon>
            <polygon id="Path" fill="#FEFDFC" fill-rule="nonzero" points="289.199219 575.84668 289.624512 576.697266 284.095703 586.053711 279.842773 593.708984 275.164551 603.490723 271.336914 612.421875 266.658691 624.755371 261.980469 639.215332 258.578125 652.824707 256.45166 665.158203 255.175781 678.767578 254.750488 694.078125 251.773438 701.733398 250.922852 701.308105 249.22168 692.802246 249.22168 675.790527 250.922852 663.882324 253.474609 651.548828 258.578125 633.686523 262.831055 621.77832 267.083984 611.996582 273.888672 597.961914 278.992188 589.456055 283.245117 583.501953 287.92334 577.547852"></polygon>
            <polygon id="Path" fill="#FEFDFB" fill-rule="nonzero" points="251.348145 148.001953 252.624023 149.703125 257.727539 160.335449 261.555176 170.54248 267.083984 187.554199 271.336914 202.439453 274.313965 215.623535 276.865723 233.48584 278.566895 250.922852 278.992188 259.428711 278.992188 284.095703 278.141602 296.854492 276.865723 307.061523 274.313965 320.245605 270.911621 331.303223 267.509277 338.958496 264.532227 343.636719 261.129883 347.889648 256.876953 350.866699 255.175781 351.717285 253.899902 351.291992 258.578125 347.889648 261.555176 344.487305 264.95752 337.682617 267.509277 330.87793 270.061035 322.37207 272.612793 310.463867 274.313965 299.831543 275.589844 284.946289 276.015137 273.463379 276.015137 264.95752 275.589844 253.899902 274.313965 238.589355 272.612793 225.405273 269.635742 208.818848 265.808105 191.807129 262.405762 179.473633 261.555176 176.071289 255.601074 159.484863 251.348145 149.277832"></polygon>
            <polygon id="Path" fill="#FEFDFC" fill-rule="nonzero" points="60.3916016 247.095215 62.5180664 247.520508 64.2192383 255.175781 65.9204102 266.658691 67.1962891 280.693359 67.621582 288.348633 67.621582 304.509766 66.7709961 321.096191 65.4951172 334.280273 63.3686523 348.740234 60.8168945 360.648438 58.2651367 369.154297 54.4375 378.085449 51.0351562 384.464844 47.6328125 388.717773 44.2304688 392.120117 39.9775391 394.671875 39.1269531 394.246582 42.9545898 391.269531 46.7822266 387.441895 50.1845703 381.487793 53.5869141 373.83252 56.5639648 363.625488 59.1157227 351.717285 61.2421875 335.556152 62.0927734 324.073242 62.5180664 312.165039 62.5180664 285.371582 61.6674805 259.854004 60.8168945 250.072266"></polygon>
            <polygon id="Path" fill="#FEFDFC" fill-rule="nonzero" points="218.600586 624.755371 219.025879 624.755371 222.428223 643.042969 225.830566 656.227051 231.784668 673.664062 238.164062 687.69873 243.267578 697.055176 247.095215 703.009277 247.945801 705.986328 247.520508 708.963379 244.543457 715.342773 243.692871 715.342773 239.865234 708.538086 236.462891 703.009277 233.060547 696.20459 229.658203 687.69873 226.255859 677.066406 223.278809 665.158203 220.727051 650.698242 218.600586 629.858887"></polygon>
            <polygon id="Path" fill="#FEFDFC" fill-rule="nonzero" points="96.9667969 93.1391602 97.3920898 93.1391602 96.9667969 100.794434 96.5415039 103.346191 98.2426758 102.920898 99.0932617 101.219727 99.9438477 101.219727 101.219727 104.196777 102.070312 104.62207 102.920898 102.920898 108.875 101.219727 110.150879 100.794434 111.852051 101.219727 111.852051 97.3920898 112.702637 96.5415039 113.978516 102.070312 115.679688 103.771484 116.530273 101.64502 117.806152 96.1162109 118.656738 96.1162109 119.082031 101.64502 120.783203 102.070312 120.783203 112.702637 119.932617 113.978516 119.507324 121.208496 118.231445 119.507324 116.955566 114.829102 116.10498 114.403809 115.679688 116.10498 114.829102 116.10498 113.978516 113.978516 113.12793 113.978516 111.852051 121.208496 111.001465 120.783203 110.576172 117.806152 102.070312 117.806152 101.64502 115.679688 100.369141 116.10498 97.8173828 119.507324 96.1162109 119.082031 95.265625 118.656738 94.4150391 120.783203 93.5644531 130.564941 92.7138672 130.139648 91.8632812 117.380859 92.2885742 110.576172 94.4150391 101.64502"></polygon>
            <polygon id="Path" fill="#FEFDFB" fill-rule="nonzero" points="415.51123 202.01416 416.361816 203.290039 422.741211 221.152344 428.27002 239.014648 431.672363 252.624023 436.350586 276.015137 438.051758 289.624512 438.051758 308.337402 436.775879 319.39502 434.649414 328.751465 432.097656 335.556152 428.695312 342.786133 424.867676 348.740234 422.741211 350.866699 423.591797 348.314941 426.568848 341.935547 429.545898 331.728516 432.097656 318.119141 433.373535 308.762695 433.798828 300.682129 433.798828 291.750977 432.948242 279.842773 431.24707 265.808105 428.27002 250.072266 423.591797 231.359375 416.361816 206.26709 415.51123 203.715332"></polygon>
            <polygon id="Path" fill="#FEFDFC" fill-rule="nonzero" points="101.219727 230.508789 104.196777 232.209961 108.449707 236.037598 111.852051 239.014648 113.553223 240.290527 113.553223 241.141113 110.150879 240.71582 107.173828 240.290527 99.5185547 240.290527 94.4150391 241.566406 89.3115234 244.543457 86.7597656 243.692871 87.1850586 244.96875 88.0356445 245.394043 87.6103516 247.945801 86.3344727 250.072266 82.9321289 248.796387 79.1044922 244.543457 75.2768555 239.014648 73.5756836 235.612305 74.4262695 233.911133 79.5297852 231.784668 82.9321289 231.359375 101.219727 231.359375"></polygon>
            <polygon id="Path" fill="#FEFDFC" fill-rule="nonzero" points="124.185547 85.4838867 124.61084 85.4838867 125.886719 96.1162109 126.312012 98.6679688 128.013184 96.9667969 128.438477 96.1162109 128.86377 91.0126953 129.714355 91.0126953 130.139648 94.4150391 130.564941 95.690918 132.266113 96.5415039 135.668457 100.369141 136.944336 99.0932617 138.645508 99.9438477 139.921387 101.64502 141.622559 108.024414 141.622559 109.725586 140.771973 109.725586 141.197266 112.702637 139.496094 111.852051 137.794922 112.277344 136.519043 113.978516 135.668457 117.806152 133.967285 116.10498 133.967285 115.254395 132.691406 115.254395 133.967285 122.059082 133.116699 121.633789 130.139648 114.403809 129.714355 112.702637 127.587891 111.426758 127.162598 110.150879 127.162598 122.909668 128.86377 134.392578 128.86377 136.944336 128.013184 135.243164 125.886719 127.162598 123.760254 112.277344 122.909668 106.748535 122.909668 98.6679688 123.760254 85.9091797"></polygon>
            <polygon id="Path" fill="#FED01E" fill-rule="nonzero" points="73.1503906 673.23877 75.7021484 673.23877 77.8286133 675.365234 79.1044922 678.342285 79.1044922 685.146973 78.2539062 690.250488 76.9780273 691.95166 77.8286133 686.422852 76.9780273 686.422852 75.7021484 690.675781 74.0009766 694.928711 71.4492188 697.055176 68.8974609 697.480469 66.7709961 696.20459 65.0698242 694.078125 63.7939453 691.526367 63.7939453 685.997559 65.4951172 680.46875 68.046875 676.21582 71.8745117 673.664062"></polygon>
            <polygon id="Path" fill="#FEFDFC" fill-rule="nonzero" points="103.771484 252.19873 104.62207 252.624023 105.472656 258.578125 106.748535 261.980469 110.576172 261.980469 108.875 264.106934 108.024414 264.106934 109.725586 267.083984 112.702637 270.486328 116.530273 272.612793 118.231445 273.038086 117.806152 274.313965 113.12793 276.015137 111.001465 276.44043 108.024414 276.44043 105.047363 275.164551 102.070312 273.038086 100.794434 275.589844 101.64502 276.015137 101.219727 278.141602 99.9438477 278.141602 98.6679688 273.038086 99.0932617 270.486328 96.9667969 267.93457 97.3920898 266.233398 99.5185547 268.359863 97.3920898 263.256348 96.9667969 261.555176 96.9667969 257.727539 98.2426758 255.601074 102.070312 253.049316"></polygon>
            <polygon id="Path" fill="#FACD1E" fill-rule="nonzero" points="155.231934 574.570801 157.783691 574.996094 159.910156 577.122559 160.335449 580.950195 158.634277 584.352539 155.657227 588.180176 152.254883 591.157227 146.300781 594.134277 143.32373 594.55957 141.197266 593.708984 139.921387 591.58252 140.771973 586.904297 143.32373 582.651367 147.57666 578.398438 153.530762 574.996094"></polygon>
            <polygon id="Path" fill="#FEFDFB" fill-rule="nonzero" points="136.519043 413.384766 136.944336 414.235352 133.541992 419.338867 126.737305 427.844727 120.35791 434.224121 114.403809 438.477051 107.173828 442.304688 100.369141 444.431152 95.265625 445.281738 85.0585938 445.281738 78.2539062 444.005859 74.0009766 442.72998 73.5756836 441.879395 83.3574219 442.304688 91.0126953 441.454102 100.794434 438.902344 111.001465 434.649414 116.955566 431.24707 123.760254 426.143555 129.714355 421.040039 133.116699 417.637695"></polygon>
            <polygon id="Path" fill="#FED121" fill-rule="nonzero" points="236.462891 218.175293 238.589355 219.025879 238.589355 222.00293 236.888184 226.681152 236.037598 226.681152 236.462891 224.554688 233.911133 225.405273 232.209961 230.508789 229.23291 233.911133 226.255859 236.462891 222.00293 238.164062 215.623535 238.164062 210.945312 236.462891 206.692383 233.060547 205.841797 230.934082 209.669434 226.681152 210.945312 225.405273 212.221191 225.405273 213.922363 228.807617 216.899414 230.508789 220.301758 230.934082 224.129395 229.658203 226.255859 227.531738 227.106445 224.97998 227.531738 222.00293 230.934082 223.278809 236.462891 223.278809"></polygon>
            <polygon id="Path" fill="#FED01E" fill-rule="nonzero" points="100.794434 633.26123 105.047363 633.26123 107.173828 635.387695 107.599121 636.238281 107.599121 640.065918 104.62207 645.169434 101.64502 648.146484 95.690918 651.548828 92.2885742 651.123535 90.5874023 648.99707 90.1621094 647.721191 90.1621094 644.744141 92.2885742 640.491211 96.1162109 636.238281 99.5185547 633.686523"></polygon>
            <polygon id="Path" fill="#010000" fill-rule="nonzero" points="161.186035 328.751465 165.013672 329.602051 175.220703 332.153809 177.772461 332.579102 184.151855 332.579102 186.703613 331.728516 187.554199 333.429688 185.002441 334.705566 174.370117 335.556152 164.588379 336.832031 161.186035 337.257324 161.186035 336.406738 166.714844 334.705566 168.416016 334.280273 165.013672 333.429688 159.484863 333.429688 153.530762 335.556152 152.680176 335.556152 153.530762 337.257324 159.05957 337.257324 158.634277 338.533203 151.404297 340.234375 149.703125 341.935547 149.277832 344.912598 150.128418 348.314941 150.979004 350.016113 149.277832 349.165527 148.001953 347.464355 147.57666 343.211426 147.151367 341.084961 141.622559 336.406738 138.645508 333.004395 137.794922 330.452637 139.070801 330.87793 141.197266 333.429688 142.047852 333.85498 142.473145 332.153809 147.151367 333.004395 151.404297 333.004395 156.933105 330.87793 162.036621 330.87793 166.289551 331.303223 162.887207 330.027344 161.186035 329.176758"></polygon>
            <polygon id="Path" fill="#FEFDFC" fill-rule="nonzero" points="86.3344727 95.690918 86.7597656 96.9667969 85.9091797 103.771484 88.0356445 103.771484 88.8862305 105.047363 90.5874023 104.196777 91.8632812 102.920898 91.4379883 109.300293 90.1621094 119.082031 89.3115234 121.208496 88.8862305 128.013184 88.0356445 127.587891 87.6103516 122.909668 84.2080078 123.334961 83.7827148 122.484375 83.7827148 119.932617 82.9321289 120.35791 81.65625 123.760254 80.8056641 128.013184 79.9550781 127.587891 79.9550781 121.633789 79.1044922 119.507324 82.081543 106.748535 85.4838867 96.5415039"></polygon>
            <polygon id="Path" fill="#FEFDFB" fill-rule="nonzero" points="301.107422 369.57959 301.958008 370.004883 297.279785 373.407227 287.498047 378.936035 281.543945 381.487793 273.463379 383.614258 270.486328 384.039551 263.256348 384.039551 255.601074 382.763672 248.371094 380.211914 241.141113 376.384277 242.416992 375.958984 249.22168 378.510742 254.750488 379.786621 266.233398 379.786621 277.291016 378.085449 287.498047 375.533691 295.578613 372.556641"></polygon>
            <polygon id="Path" fill="#FEFDFB" fill-rule="nonzero" points="383.614258 333.004395 384.039551 333.004395 383.614258 337.257324 380.637207 347.889648 378.085449 354.694336 374.683105 361.07373 370.855469 366.177246 367.453125 369.57959 360.223145 375.108398 358.09668 376.384277 356.820801 375.958984 360.223145 372.981934 364.050781 369.57959 368.303711 363.625488 373.83252 355.119629 378.936035 345.337891 383.188965 334.280273"></polygon>
            <polygon id="Path" fill="#FEFDFB" fill-rule="nonzero" points="207.968262 202.01416 210.945312 202.01416 210.52002 203.715332 208.818848 205.841797 204.991211 206.692383 196.485352 208.393555 189.680664 210.52002 186.703613 210.52002 183.726562 208.818848 185.427734 207.117676 191.381836 204.991211 197.76123 203.290039 202.439453 202.439453"></polygon>
            <polygon id="Path" fill="#FEFDFB" fill-rule="nonzero" points="156.08252 154.381348 158.208984 156.507812 161.611328 160.335449 161.611328 161.186035 162.461914 161.186035 165.438965 164.588379 168.416016 167.56543 173.094238 171.393066 177.772461 174.79541 186.703613 179.473633 186.703613 180.324219 182.450684 182.025391 180.324219 181.600098 175.645996 178.197754 170.117188 173.519531 165.438965 168.416016 159.910156 161.186035 156.08252 155.231934"></polygon>
            <polygon id="Path" fill="#FEFDFA" fill-rule="nonzero" points="223.704102 346.188477 224.554688 347.889648 226.681152 354.694336 229.23291 359.797852 232.209961 363.625488 236.462891 367.878418 242.416992 371.706055 249.22168 374.683105 255.175781 376.384277 261.980469 377.234863 270.911621 377.660156 270.911621 378.085449 268.359863 378.510742 255.601074 378.510742 246.669922 376.384277 239.865234 373.407227 235.187012 370.430176 230.508789 365.751953 227.106445 360.223145 224.97998 354.694336 223.704102 348.314941"></polygon>
            <polygon id="Path" fill="#FEFDFB" fill-rule="nonzero" points="245.819336 629.433594 246.244629 629.433594 245.819336 639.215332 245.394043 651.548828 246.669922 668.135254 246.669922 676.641113 245.819336 677.916992 244.96875 677.916992 244.118164 674.939941 243.267578 668.135254 242.842285 662.181152 242.842285 655.376465 243.692871 640.065918"></polygon>
            <polygon id="Path" fill="#FEFDFB" fill-rule="nonzero" points="100.794434 241.141113 107.599121 241.991699 113.12793 243.692871 119.082031 246.669922 119.932617 247.520508 119.507324 248.796387 113.553223 246.244629 107.173828 244.96875 100.369141 244.96875 94.4150391 246.669922 90.5874023 245.394043 92.2885742 243.692871 96.1162109 241.991699"></polygon>
            <polygon id="Path" fill="#FED227" fill-rule="nonzero" points="113.978516 260.70459 115.254395 261.980469 117.380859 264.532227 118.231445 264.95752 122.909668 264.95752 124.185547 261.129883 124.61084 261.129883 124.185547 265.808105 123.334961 269.635742 122.059082 270.911621 119.082031 271.336914 115.679688 270.061035 111.001465 266.233398 110.150879 265.808105 111.001465 264.106934"></polygon>
            <polygon id="Path" fill="#FEFDFA" fill-rule="nonzero" points="220.727051 73.5756836 222.853516 75.7021484 228.382324 83.3574219 232.635254 89.7368164 238.164062 99.0932617 242.842285 108.449707 246.669922 115.679688 246.244629 116.530273 240.290527 106.323242 233.060547 94.4150391 227.957031 85.9091797 222.00293 76.1274414 220.727051 74.4262695"></polygon>
            <polygon id="Path" fill="#FEFDFA" fill-rule="nonzero" points="145.875488 423.166504 146.300781 424.01709 142.473145 429.545898 137.369629 435.5 132.691406 439.327637 128.013184 442.304688 123.334961 444.005859 118.231445 444.856445 118.656738 444.005859 126.737305 440.178223 133.967285 435.074707 138.220215 431.672363 142.473145 427.419434 145.450195 423.591797"></polygon>
            <polygon id="Path" fill="#010000" fill-rule="nonzero" points="170.967773 347.889648 172.243652 347.889648 172.243652 348.740234 167.990723 351.717285 162.887207 353.84375 159.910156 354.269043 153.956055 352.567871 151.404297 350.866699 150.979004 350.016113 153.530762 350.441406 160.760742 350.441406 169.691895 348.314941"></polygon>
            <polygon id="Path" fill="#FEFDFB" fill-rule="nonzero" points="175.645996 212.646484 177.347168 213.49707 180.324219 214.772949 180.324219 215.623535 176.071289 216.474121 176.071289 217.324707 178.197754 217.75 176.496582 219.025879 174.370117 220.301758 172.243652 220.727051 168.841309 220.727051 169.691895 218.600586 173.519531 214.347656"></polygon>
            <polygon id="Path" fill="#FEFDFC" fill-rule="nonzero" points="212.646484 202.01416 218.175293 202.01416 224.129395 202.439453 223.278809 204.140625 220.727051 205.841797 219.451172 206.26709 212.221191 206.26709 211.795898 204.991211"></polygon>
            <polygon id="Path" fill="#FEFDFB" fill-rule="nonzero" points="222.428223 215.198242 224.97998 215.623535 226.681152 217.324707 226.255859 219.451172 224.129395 220.727051 221.577637 220.301758 220.301758 218.600586 220.727051 216.474121"></polygon>
            <polygon id="Path" fill="#FEFCF4" fill-rule="nonzero" points="426.994141 166.714844 428.27002 167.140137 433.798828 182.875977 437.201172 191.807129 437.201172 192.657715 436.350586 192.657715 431.672363 180.324219 427.844727 170.117188 426.994141 167.990723"></polygon>
            <polygon id="Path" fill="#FEFDFB" fill-rule="nonzero" points="182.025391 208.818848 183.726562 209.669434 185.853027 211.370605 185.853027 212.221191 182.025391 213.49707 178.197754 212.646484 178.197754 211.370605"></polygon>
            <polygon id="Path" fill="#FEFDF8" fill-rule="nonzero" points="290.900391 382.338379 292.17627 382.763672 287.498047 384.464844 283.245117 385.31543 274.313965 385.740723 272.612793 384.890137 284.520996 383.614258"></polygon>
            <polygon id="Path" fill="#010000" fill-rule="nonzero" points="138.220215 299.831543 141.197266 299.831543 145.024902 301.107422 146.300781 302.383301 146.300781 303.233887 144.174316 302.808594 141.197266 301.958008 135.668457 301.958008 136.09375 300.682129"></polygon>
            <polygon id="Path" fill="#FEFDF8" fill-rule="nonzero" points="183.30127 173.944824 185.427734 174.370117 189.680664 176.921875 194.78418 176.496582 194.78418 177.772461 190.956543 179.04834 188.830078 178.623047 184.151855 175.220703"></polygon>
            <polygon id="Path" fill="#FEFCF6" fill-rule="nonzero" points="236.462891 218.175293 238.589355 219.025879 238.589355 222.00293 236.888184 226.681152 236.037598 226.681152 236.462891 224.554688 234.336426 224.97998 233.911133 223.704102 236.462891 223.278809"></polygon>
            <polygon id="Path" fill="#010000" fill-rule="nonzero" points="148.427246 324.498535 150.128418 324.923828 146.726074 327.050293 143.749023 328.326172 141.197266 327.900879 140.34668 327.050293 140.771973 326.625 145.875488 325.774414"></polygon>
            <polygon id="Path" fill="#FEFDF8" fill-rule="nonzero" points="126.737305 124.61084 127.162598 124.61084 128.86377 134.392578 128.86377 136.944336 128.013184 135.243164 125.886719 127.162598 125.886719 125.036133"></polygon>
            <polygon id="Path" fill="#FEFDFB" fill-rule="nonzero" points="49.7592773 419.76416 54.012207 419.76416 53.1616211 420.614746 51.0351562 421.040039 42.1040039 421.040039 40.402832 420.189453"></polygon>
            <polygon id="Path" fill="#FEFDF5" fill-rule="nonzero" points="335.981445 360.648438 337.257324 361.07373 333.429688 367.027832 329.602051 371.706055 328.751465 372.131348 329.602051 370.430176 333.85498 364.476074"></polygon>
            <polygon id="Path" fill="#FEFDFB" fill-rule="nonzero" points="117.380859 253.474609 120.35791 253.899902 120.783203 256.026367 119.932617 256.876953 117.806152 256.876953 116.955566 255.601074"></polygon>
            <polygon id="Path" fill="#FEFDF7" fill-rule="nonzero" points="335.130859 193.933594 335.981445 195.209473 338.958496 204.565918 338.958496 205.416504 337.682617 205.841797 335.130859 195.634766"></polygon>
            <polygon id="Path" fill="#FEFDF8" fill-rule="nonzero" points="408.706543 320.670898 409.131836 320.670898 408.706543 325.349121 407.430664 331.303223 406.154785 331.303223 407.005371 327.050293"></polygon>
            <polygon id="Path" fill="#FEFDF9" fill-rule="nonzero" points="21.2646484 207.968262 22.5405273 208.393555 25.5175781 215.623535 26.793457 218.175293 26.3681641 219.025879 22.9658203 213.071777 21.2646484 209.244141"></polygon>
            <polygon id="Path" fill="#FEFDF7" fill-rule="nonzero" points="251.348145 148.001953 252.624023 149.703125 256.45166 157.783691 255.175781 158.634277 251.773438 150.128418"></polygon>
            <polygon id="Path" fill="#FEFDFA" fill-rule="nonzero" points="88.8862305 246.669922 91.4379883 247.095215 92.2885742 247.520508 92.2885742 248.371094 89.3115234 249.646973 87.6103516 249.22168"></polygon>
            <polygon id="Path" fill="#FEFDF5" fill-rule="nonzero" points="24.2416992 160.760742 25.5175781 161.611328 24.2416992 169.266602 23.3911133 169.691895 23.8164062 163.3125"></polygon>
            <polygon id="Path" fill="#FEFDF6" fill-rule="nonzero" points="112.702637 571.168457 113.12793 572.444336 111.426758 577.547852 109.300293 580.524902 108.875 579.674316"></polygon>
            <polygon id="Path" fill="#FEFDF4" fill-rule="nonzero" points="245.819336 629.433594 246.244629 629.433594 246.244629 633.26123 245.819336 637.51416 244.543457 636.238281 245.394043 631.134766"></polygon>
            <polygon id="Path" fill="#FEFDF7" fill-rule="nonzero" points="220.727051 73.5756836 222.853516 75.7021484 225.830566 79.9550781 224.554688 80.3803711 220.727051 74.4262695"></polygon>
            <polygon id="Path" fill="#FEFDF7" fill-rule="nonzero" points="475.052246 569.467285 476.328125 571.168457 477.178711 574.570801 475.902832 574.996094 475.052246 571.59375"></polygon>
            <polygon id="Path" fill="#FEFDF8" fill-rule="nonzero" points="383.614258 333.004395 384.039551 333.004395 383.614258 337.257324 383.188965 338.533203 381.913086 338.958496 382.338379 336.832031"></polygon>
        </g>
    </g>
</svg>